<svg width="920" height="560" viewBox="0 0 920 560" xmlns="http://www.w3.org/2000/svg" role="img" aria-label="Application dashboard placeholder">
  <defs>
    <linearGradient id="panel" x1="0" y1="0" x2="1" y2="1">
      <stop offset="0" stop-color="#F8FAFC" />
      <stop offset="1" stop-color="#E2E8F0" />
    </linearGradient>
    <linearGradient id="chart" x1="1" y1="0" x2="0" y2="1">
      <stop offset="0" stop-color="#3B82F6" />
      <stop offset="1" stop-color="#1D4ED8" />
    </linearGradient>
  </defs>

  <rect width="920" height="560" fill="#0F172A" />
  <rect x="20" y="20" width="880" height="520" rx="12" fill="url(#panel)" />

  <rect x="48" y="48" width="200" height="18" rx="8" fill="#94A3B8" />
  <rect x="700" y="46" width="170" height="22" rx="8" fill="#DBEAFE" />

  <rect x="48" y="94" width="176" height="112" rx="10" fill="#FFFFFF" />
  <rect x="238" y="94" width="176" height="112" rx="10" fill="#FFFFFF" />
  <rect x="428" y="94" width="176" height="112" rx="10" fill="#FFFFFF" />
  <rect x="618" y="94" width="252" height="112" rx="10" fill="#FFFFFF" />

  <rect x="48" y="232" width="548" height="280" rx="12" fill="#FFFFFF" />
  <rect x="618" y="232" width="252" height="136" rx="12" fill="#FFFFFF" />
  <rect x="618" y="376" width="252" height="136" rx="12" fill="#FFFFFF" />

  <path d="M78 442 L180 390 L278 410 L370 336 L478 362 L566 286" stroke="url(#chart)" stroke-width="8" fill="none" stroke-linecap="round" stroke-linejoin="round" />
  <circle cx="180" cy="390" r="8" fill="#2563EB" />
  <circle cx="370" cy="336" r="8" fill="#2563EB" />
  <circle cx="566" cy="286" r="8" fill="#2563EB" />

  <rect x="650" y="262" width="188" height="12" rx="6" fill="#CBD5E1" />
  <rect x="650" y="288" width="140" height="10" rx="5" fill="#E2E8F0" />
  <rect x="650" y="314" width="170" height="10" rx="5" fill="#E2E8F0" />

  <rect x="650" y="406" width="188" height="12" rx="6" fill="#CBD5E1" />
  <rect x="650" y="432" width="132" height="10" rx="5" fill="#E2E8F0" />
  <rect x="650" y="458" width="168" height="10" rx="5" fill="#E2E8F0" />
</svg>
