<svg width="1920" height="1200" viewBox="0 0 1920 1200" xmlns="http://www.w3.org/2000/svg" role="img" aria-label="SaaS background illustration">
  <style>
    .base-start { stop-color: #3f0d16; }
    .base-end { stop-color: #b91c1c; }
    .glow-a-start { stop-color: #fda4af; stop-opacity: 0.44; }
    .glow-a-end { stop-color: #ef4444; stop-opacity: 0; }
    .glow-b-start { stop-color: #fecdd6; stop-opacity: 0.32; }
    .glow-b-end { stop-color: #dc2626; stop-opacity: 0; }
    .wave {
      fill: none;
      stroke: #fecdd6;
      stroke-opacity: 0.16;
      stroke-width: 1;
    }
    .panel {
      fill: #fff7f8;
      fill-opacity: 0.08;
    }
    .panel-soft {
      fill: #fff1f2;
      fill-opacity: 0.13;
    }

    @media (prefers-color-scheme: dark) {
      .base-start { stop-color: #17090b; }
      .base-end { stop-color: #571319; }
      .glow-a-start { stop-color: #fb7185; stop-opacity: 0.3; }
      .glow-a-end { stop-color: #991b1b; stop-opacity: 0; }
      .glow-b-start { stop-color: #fda4af; stop-opacity: 0.22; }
      .glow-b-end { stop-color: #7f1d1d; stop-opacity: 0; }
      .wave {
        stroke: #fecdd6;
        stroke-opacity: 0.1;
      }
      .panel {
        fill: #fff1f2;
        fill-opacity: 0.05;
      }
      .panel-soft {
        fill: #ffe4e8;
        fill-opacity: 0.08;
      }
    }
  </style>
  <defs>
    <linearGradient id="base" x1="220" y1="120" x2="1680" y2="1080" gradientUnits="userSpaceOnUse">
      <stop class="base-start" offset="0" />
      <stop class="base-end" offset="1" />
    </linearGradient>
    <linearGradient id="glowA" x1="0" y1="0" x2="1" y2="1">
      <stop class="glow-a-start" offset="0" />
      <stop class="glow-a-end" offset="1" />
    </linearGradient>
    <linearGradient id="glowB" x1="1" y1="0" x2="0" y2="1">
      <stop class="glow-b-start" offset="0" />
      <stop class="glow-b-end" offset="1" />
    </linearGradient>
  </defs>

  <rect width="1920" height="1200" fill="url(#base)" />

  <circle cx="370" cy="240" r="360" fill="url(#glowA)" />
  <circle cx="1670" cy="960" r="420" fill="url(#glowB)" />

  <g>
    <path class="wave" d="M0 980C340 890 500 760 740 820C980 880 1250 1060 1920 900" />
    <path class="wave" d="M0 1060C280 930 530 930 760 980C1050 1040 1350 1140 1920 1020" />
    <path class="wave" d="M0 860C280 780 540 620 760 650C1050 690 1300 900 1920 760" />
  </g>

  <g>
    <rect class="panel" x="1060" y="170" width="640" height="390" rx="14" />
    <rect class="panel" x="1086" y="212" width="598" height="18" rx="8" />
    <rect class="panel" x="1086" y="250" width="220" height="258" rx="10" />
    <rect class="panel" x="1324" y="250" width="360" height="120" rx="10" />
    <rect class="panel" x="1324" y="388" width="360" height="120" rx="10" />
  </g>

  <g>
    <rect class="panel-soft" x="160" y="180" width="520" height="300" rx="12" />
    <rect class="panel-soft" x="194" y="216" width="240" height="16" rx="8" />
    <rect class="panel-soft" x="194" y="252" width="450" height="10" rx="5" />
    <rect class="panel-soft" x="194" y="274" width="370" height="10" rx="5" />
    <rect class="panel-soft" x="194" y="296" width="410" height="10" rx="5" />
    <rect class="panel-soft" x="194" y="338" width="92" height="110" rx="8" />
    <rect class="panel-soft" x="298" y="314" width="92" height="134" rx="8" />
    <rect class="panel-soft" x="402" y="288" width="92" height="160" rx="8" />
    <rect class="panel-soft" x="506" y="344" width="92" height="104" rx="8" />
  </g>
</svg>
