<svg width="1920" height="1200" viewBox="0 0 1920 1200" xmlns="http://www.w3.org/2000/svg" role="img" aria-label="SaaS background illustration">
  <defs>
    <linearGradient id="base" x1="220" y1="120" x2="1680" y2="1080" gradientUnits="userSpaceOnUse">
      <stop offset="0" stop-color="#0B1220" />
      <stop offset="1" stop-color="#1E3A8A" />
    </linearGradient>
    <linearGradient id="glowA" x1="0" y1="0" x2="1" y2="1">
      <stop offset="0" stop-color="#60A5FA" stop-opacity="0.48" />
      <stop offset="1" stop-color="#2563EB" stop-opacity="0" />
    </linearGradient>
    <linearGradient id="glowB" x1="1" y1="0" x2="0" y2="1">
      <stop offset="0" stop-color="#93C5FD" stop-opacity="0.36" />
      <stop offset="1" stop-color="#1D4ED8" stop-opacity="0" />
    </linearGradient>
  </defs>

  <rect width="1920" height="1200" fill="url(#base)" />

  <circle cx="370" cy="240" r="360" fill="url(#glowA)" />
  <circle cx="1670" cy="960" r="420" fill="url(#glowB)" />

  <g stroke="rgba(191,219,254,0.2)" stroke-width="1" fill="none">
    <path d="M0 980C340 890 500 760 740 820C980 880 1250 1060 1920 900" />
    <path d="M0 1060C280 930 530 930 760 980C1050 1040 1350 1140 1920 1020" />
    <path d="M0 860C280 780 540 620 760 650C1050 690 1300 900 1920 760" />
  </g>

  <g fill="rgba(248,250,252,0.08)">
    <rect x="1060" y="170" width="640" height="390" rx="14" />
    <rect x="1086" y="212" width="598" height="18" rx="8" />
    <rect x="1086" y="250" width="220" height="258" rx="10" />
    <rect x="1324" y="250" width="360" height="120" rx="10" />
    <rect x="1324" y="388" width="360" height="120" rx="10" />
  </g>

  <g fill="rgba(226,232,240,0.15)">
    <rect x="160" y="180" width="520" height="300" rx="12" />
    <rect x="194" y="216" width="240" height="16" rx="8" />
    <rect x="194" y="252" width="450" height="10" rx="5" />
    <rect x="194" y="274" width="370" height="10" rx="5" />
    <rect x="194" y="296" width="410" height="10" rx="5" />
    <rect x="194" y="338" width="92" height="110" rx="8" />
    <rect x="298" y="314" width="92" height="134" rx="8" />
    <rect x="402" y="288" width="92" height="160" rx="8" />
    <rect x="506" y="344" width="92" height="104" rx="8" />
  </g>
</svg>
